<svg class="menu__item__text--ja" viewBox="0 0 134 33" fill="none" xmlns="http://www.w3.org/2000/svg">
            <path d="M111.237 26.532L110.353 27.382C108.789 26.396 107.157 25.784 105.355 25.478C106.035 24.866 106.783 24.22 108.041 22.758H101.921V18.508H111.169C111.645 17.76 111.815 17.454 112.053 17.046H104.199V7.42401H111.441V6.20001H101.921V1.95001H133.065V6.20001H123.443V7.42401H130.787V17.046H118.717C118.649 17.386 118.479 17.488 117.833 17.658C117.629 17.998 117.561 18.134 117.357 18.508H133.065V22.758H128.033C128.237 23.336 127.421 23.336 126.979 23.336C126.435 24.05 125.857 24.832 124.701 25.92C127.183 26.736 128.373 27.144 132.011 28.538C131.705 28.878 129.699 31.36 128.781 32.924C127.455 32.142 125.007 30.714 120.383 29.15C114.841 32.312 106.953 32.618 104.301 32.72C103.995 30.986 103.077 29.32 101.921 27.926C102.703 27.96 103.587 27.994 104.879 27.994C106.137 27.994 110.115 27.96 113.651 27.144C113.141 27.008 112.495 26.838 111.237 26.532ZM116.371 11.266V13.204H118.547V11.266H116.371ZM118.547 7.42401V6.20001H116.371V7.42401H118.547ZM111.441 13.204V11.266H109.299V13.204H111.441ZM123.443 11.266V13.204H125.619V11.266H123.443ZM120.825 22.758H114.535C114.229 23.166 114.127 23.302 113.753 23.744C115.997 24.016 116.405 24.118 118.921 24.696C119.839 23.948 120.451 23.234 120.825 22.758Z" fill="white"></path>
            <path d="M83.2203 19.46L86.9603 17.998C87.8783 19.97 88.6603 22.18 89.2383 23.812C90.3603 22.18 91.2783 20.412 91.9243 18.542H87.9803V13.782H88.7283V6.948H88.2183V2.154H98.7243V6.948H97.7383C97.6703 10.654 97.3643 12.966 97.2963 13.782H99.0303V18.542H96.4803C96.2763 19.29 96.1743 19.732 96.0723 20.072C96.3103 20.106 96.6843 20.14 96.6843 20.48C96.6843 20.888 96.1403 21.058 95.9363 21.126V26.498C95.9363 27.008 96.0383 27.11 96.3443 27.11C96.5143 27.11 96.6503 27.076 96.7183 26.804C96.7863 26.498 96.8203 24.662 96.8203 24.39C98.0103 25.648 99.5063 26.26 99.8463 26.396C99.4043 30.51 99.2343 32.108 96.1743 32.108H94.4063C92.6383 32.108 91.7883 31.734 91.7883 29.524V27.586C90.1223 30.408 88.1503 32.04 87.0283 32.924C85.0223 31.36 84.5123 30.986 82.6763 30C83.7303 29.354 84.5123 28.844 85.5323 27.96L85.1923 26.634C81.3503 29.286 80.3983 29.83 79.4123 30.374C79.3103 31.258 79.3103 31.462 78.8683 31.462C78.5963 31.462 78.4263 31.224 78.3583 31.02L76.4203 25.818C76.9983 25.58 77.2703 25.512 78.1883 25.104V20.14C77.4403 21.126 77.2363 21.534 76.9643 22.112C76.6583 21.636 76.5223 21.432 75.7743 20.072V32.72H70.8783V22.792C70.2323 24.39 69.9263 24.934 69.6883 25.342C69.0763 24.118 68.4643 23.132 66.6963 21.364C68.6003 18.406 69.7563 15.856 70.7083 11.98H67.8523V6.914H70.8783V1.474L75.7743 1.746C76.0803 1.746 76.4543 1.814 76.4543 2.188C76.4543 2.392 76.3863 2.596 75.7743 2.8V6.914H77.6103V11.98H75.7743C76.6243 13.85 77.4063 15.074 78.1883 16.162V2.154H87.4363V17.284H82.4383V23.098C83.3903 22.622 83.7983 22.35 84.2403 22.112C83.8323 20.854 83.5263 20.14 83.2203 19.46ZM82.4383 8.138H83.7303V6.472H82.4383V8.138ZM83.7303 11.3H82.4383V13.068H83.7303V11.3ZM93.4203 6.948H92.1283V13.782H93.0463C93.1143 13.204 93.3523 11.096 93.4203 6.948Z" fill="white"></path>
            <path d="M64.7245 16.706H58.0605V17.998H63.4325V21.568H58.0605V22.894H63.4325V26.464H58.0605V27.756H65.0645V31.904H49.5605V32.618H44.3585V20.922C43.9505 21.33 43.9165 21.398 43.5085 21.772C43.1685 21.16 42.8625 20.616 41.9105 19.426V32.618H36.4365V17.318C36.0965 17.726 35.9265 17.896 35.5185 18.372C34.7025 16.332 34.2945 15.04 32.5605 13.51C37.3205 7.69601 38.6805 1.44001 38.8505 0.76001L44.2565 2.29001V1.61001L49.2545 1.88201C49.7305 1.91601 50.0365 1.98401 50.0365 2.35801C50.0365 2.69801 49.8665 2.83401 49.3225 3.14001V5.92801H51.3965V1.16801L56.6665 1.44001C57.1765 1.47401 57.5165 1.57601 57.5165 1.91601C57.5165 2.25601 57.2445 2.56201 56.7005 2.66401V5.92801H59.0805V1.71201L64.5205 1.98401C64.7585 1.98401 65.2685 2.01801 65.2685 2.46001C65.2685 2.76601 64.9625 3.00401 64.4185 3.20801V10.042H55.7825L59.0465 11.062C59.3525 11.164 59.6245 11.334 59.6245 11.572C59.6245 11.946 59.0805 12.048 58.8085 12.082C58.5705 12.49 58.4685 12.66 58.2305 13.068H64.7245V16.706ZM53.0625 16.706H49.5605V17.998H53.0625V16.706ZM53.0625 21.568H49.5605V22.894H53.0625V21.568ZM50.4105 13.068H52.2805C52.9265 12.048 53.5725 11.028 53.9125 10.042H49.6965L51.5325 10.722C51.7365 10.79 52.0425 11.028 52.0425 11.266C52.0425 11.708 51.5325 11.81 51.0905 11.844C50.9885 12.048 50.5125 12.898 50.4105 13.068ZM49.5605 27.756H53.0625V26.464H49.5605V27.756ZM41.9105 9.63401V16.06C44.6305 13.272 45.7865 10.892 46.2285 10.042H44.2565V3.37801C44.1545 3.41201 44.1205 3.41201 43.9845 3.44601C43.6785 4.12601 42.2505 7.49201 41.9105 8.24001C42.3525 8.34201 42.7605 8.58001 42.7605 8.88601C42.7605 9.22601 42.3525 9.46401 41.9105 9.63401Z" fill="white"></path>
            <path d="M9.33874 24.764H6.61874V20.854H9.78074C9.81474 20.242 9.84874 19.596 9.81474 19.052H7.19674V15.278H23.8907V19.052H21.3747V20.854H24.5707V24.764H21.3747V31.904H16.5467V24.764H14.1667C13.8267 26.838 13.0447 30.068 9.88274 32.584C8.14874 30.952 7.67274 30.578 5.73474 29.762V32.652H0.260742V1.95001H14.8127V14.224H5.73474V29.626C7.87674 28.13 8.82874 26.838 9.33874 24.764ZM16.1727 1.95001H30.7247V28.402C30.7247 32.346 27.9707 32.618 23.7887 32.618C23.7547 31.666 23.6527 30.034 22.2587 27.212C23.5847 27.45 23.7547 27.45 24.2647 27.45C24.7747 27.45 25.3867 27.45 25.3867 26.498V14.224H16.1727V1.95001ZM5.59874 6.71001H9.74674V5.58801H5.59874V6.71001ZM9.74674 9.53201H5.59874V10.722H9.74674V9.53201ZM21.2727 6.71001H25.3867V5.58801H21.2727V6.71001ZM25.3867 9.53201H21.2727V10.722H25.3867V9.53201ZM16.5467 20.854V19.052H14.5067V20.854H16.5467Z" fill="white"></path>
          </svg>