<svg class="sns__icon" viewBox="0 0 42 32" fill="none" xmlns="http://www.w3.org/2000/svg">
                <path d="M21.2778 22.1935L39.0136 3.9731C39.0743 4.06267 39.1249 4.16393 39.1651 4.27793C39.2382 4.48557 39.276 4.7138 39.276 4.96467V27.7039C39.276 28.1609 39.1366 28.5471 38.8594 28.8748C38.5828 29.202 38.2739 29.3488 37.9237 29.3488H4.27361C3.9234 29.3488 3.61449 29.202 3.33784 28.8748C3.06068 28.5471 2.92123 28.1609 2.92123 27.7039V4.96467C2.92123 4.71379 2.95905 4.48557 3.03221 4.27794C3.07238 4.16393 3.123 4.06267 3.18366 3.9731L20.9195 22.1935L21.0986 22.3775L21.2778 22.1935ZM4.27361 0.924805C3.32444 0.924805 2.50718 1.32838 1.83151 2.10639C1.15361 2.88696 0.818848 3.84513 0.818848 4.96467V27.7039C0.818848 28.8217 1.14416 29.779 1.80433 30.5597C2.4661 31.3423 3.29372 31.7438 4.27361 31.7438H37.9237C38.8728 31.7438 39.6901 31.3402 40.3658 30.5622C41.0437 29.7816 41.3784 28.8234 41.3784 27.7039V4.96467C41.3784 3.84689 41.0531 2.88959 40.3929 2.10889C39.7312 1.32629 38.9035 0.924805 37.9237 0.924805H4.27361ZM36.5302 3.31974L21.0986 19.1736L5.66702 3.31974H36.5302Z" fill="black" stroke="black" stroke-width="0.5"></path>
              </svg>